<svg viewBox="0 0 400 300" xmlns="http://www.w3.org/2000/svg">
  <!-- Background -->
  <rect width="400" height="300" fill="#2C3E50"/>
  
  <!-- Living room floor -->
  <rect x="0" y="200" width="400" height="100" fill="#8B4513"/>
  
  <!-- Carpet -->
  <ellipse cx="200" cy="220" rx="120" ry="60" fill="#DC143C" opacity="0.8"/>
  
  <!-- Coffee table -->
  <rect x="150" y="180" width="100" height="40" fill="#D2691E" rx="5"/>
  <rect x="145" y="220" width="10" height="20" fill="#8B4513"/>
  <rect x="245" y="220" width="10" height="20" fill="#8B4513"/>
  
  <!-- Board game on table -->
  <rect x="160" y="170" width="80" height="20" fill="#FFF" stroke="#000" stroke-width="2"/>
  <rect x="165" y="175" width="10" height="10" fill="#FF6B6B"/>
  <rect x="180" y="175" width="10" height="10" fill="#4ECDC4"/>
  <rect x="195" y="175" width="10" height="10" fill="#FFD93D"/>
  <rect x="210" y="175" width="10" height="10" fill="#6BCF7F"/>
  <rect x="225" y="175" width="10" height="10" fill="#4D96FF"/>
  
  <!-- Game pieces -->
  <circle cx="170" cy="165" r="3" fill="#FF6B6B"/>
  <circle cx="185" cy="165" r="3" fill="#4ECDC4"/>
  <circle cx="200" cy="165" r="3" fill="#FFD93D"/>
  <circle cx="215" cy="165" r="3" fill="#6BCF7F"/>
  
  <!-- Dice -->
  <rect x="250" y="175" width="8" height="8" fill="#FFF" stroke="#000" stroke-width="1"/>
  <circle cx="252" cy="177" r="0.5" fill="#000"/>
  <circle cx="256" cy="181" r="0.5" fill="#000"/>
  
  <!-- Family members sitting around -->
  <!-- Dad -->
  <circle cx="100" cy="150" r="18" fill="#FDBCB4"/>
  <circle cx="94" cy="145" r="2" fill="#000"/>
  <circle cx="106" cy="145" r="2" fill="#000"/>
  <path d="M 92 155 Q 100 165 108 155" stroke="#000" stroke-width="2" fill="none"/>
  <rect x="85" y="168" width="30" height="35" fill="#4169E1" rx="5"/>
  <path d="M 85 140 Q 100 125 115 140 Q 110 130 100 125 Q 90 130 85 140" fill="#8B4513"/>
  
  <!-- Mom -->
  <circle cx="300" cy="150" r="18" fill="#FDBCB4"/>
  <circle cx="294" cy="145" r="2" fill="#000"/>
  <circle cx="306" cy="145" r="2" fill="#000"/>
  <path d="M 292 155 Q 300 165 308 155" stroke="#000" stroke-width="2" fill="none"/>
  <rect x="285" y="168" width="30" height="35" fill="#FF69B4" rx="5"/>
  <path d="M 285 140 Q 300 120 315 140 Q 310 125 300 120 Q 290 125 285 140" fill="#DAA520"/>
  
  <!-- Child 1 -->
  <circle cx="150" cy="240" r="15" fill="#FDBCB4"/>
  <circle cx="145" cy="235" r="2" fill="#000"/>
  <circle cx="155" cy="235" r="2" fill="#000"/>
  <path d="M 143 245 Q 150 255 157 245" stroke="#000" stroke-width="2" fill="none"/>
  <rect x="138" y="255" width="24" height="30" fill="#32CD32" rx="5"/>
  <path d="M 138 230 Q 150 215 162 230 Q 158 220 150 215 Q 142 220 138 230" fill="#FF6347"/>
  
  <!-- Child 2 -->
  <circle cx="250" cy="240" r="15" fill="#FDBCB4"/>
  <circle cx="245" cy="235" r="2" fill="#000"/>
  <circle cx="255" cy="235" r="2" fill="#000"/>
  <path d="M 243 245 Q 250 255 257 245" stroke="#000" stroke-width="2" fill="none"/>
  <rect x="238" y="255" width="24" height="30" fill="#FF6347" rx="5"/>
  <path d="M 238 230 Q 250 215 262 230 Q 258 220 250 215 Q 242 220 238 230" fill="#4169E1"/>
  
  <!-- Snacks -->
  <rect x="120" y="185" width="20" height="8" fill="#FFD700" rx="2"/>
  <text x="130" y="192" font-family="Arial" font-size="6" text-anchor="middle" fill="#8B4513">CHIPS</text>
  
  <!-- Drinks -->
  <rect x="270" y="180" width="6" height="15" fill="#4169E1" rx="2"/>
  <rect x="280" y="180" width="6" height="15" fill="#FF6347" rx="2"/>
  
  <!-- Lamp providing warm light -->
  <rect x="350" y="80" width="8" height="40" fill="#8B4513"/>
  <ellipse cx="354" cy="75" rx="15" ry="20" fill="#FFFACD" opacity="0.8"/>
  <circle cx="354" cy="75" r="8" fill="#FFD700" opacity="0.6"/>
  
  <!-- Happy expressions and laughter -->
  <text x="80" y="130" font-family="Arial" font-size="8" fill="#FFD700">😄</text>
  <text x="320" y="130" font-family="Arial" font-size="8" fill="#FFD700">😊</text>
  <text x="130" y="220" font-family="Arial" font-size="8" fill="#FFD700">😆</text>
  <text x="270" y="220" font-family="Arial" font-size="8" fill="#FFD700">😄</text>
  
  <!-- Title -->
  <text x="200" y="30" font-family="Arial" font-size="18" font-weight="bold" text-anchor="middle" fill="#FFD700">Family Game Night</text>
</svg>